<svg id="noun-ai-1235933" xmlns="http://www.w3.org/2000/svg" width="86.146" height="80.977" viewBox="0 0 86.146 80.977">
    <path id="Path_1" data-name="Path 1"
          d="M290.086,223.358v3.419a1.013,1.013,0,1,0,2.025,0v-3.419H294.5a2.78,2.78,0,0,0,2.75-2.8v-2.433h3.354a1.031,1.031,0,0,0,0-2.062h-3.354v-2.327h3.354a1.031,1.031,0,0,0,0-2.062h-3.354v-2.326h3.355a1.031,1.031,0,0,0,0-2.062h-3.355v-2.309a2.78,2.78,0,0,0-2.749-2.8H292.11v-3.419a1.013,1.013,0,1,0-2.025,0v3.419H287.8v-3.419a1.013,1.013,0,1,0-2.025,0v3.419H283.5v-3.419a1.013,1.013,0,1,0-2.025,0v3.419h-2.391a2.78,2.78,0,0,0-2.75,2.8v2.874h-3.355a1.031,1.031,0,0,0,0,2.062h3.355v2.325h-3.355a1.031,1.031,0,0,0,0,2.062h3.355v2.327h-3.355a1.031,1.031,0,0,0,0,2.062h3.355v1.867a2.78,2.78,0,0,0,2.75,2.8h2.391v3.419a1.013,1.013,0,1,0,2.025,0v-3.417h2.281v3.419a1.013,1.013,0,1,0,2.025,0v-3.419Zm-11.73-2.8V204.973a.734.734,0,0,1,.726-.74H294.5a.733.733,0,0,1,.724.74v15.583a.734.734,0,0,1-.724.74h-15.42A.733.733,0,0,1,278.356,220.556Z"
          transform="translate(-244.006 -172.165)" fill="#fff"/>
    <path id="Path_2" data-name="Path 2"
          d="M329.99,256.025V244.236a1.021,1.021,0,0,0-1.013-1.031H317.409a1.022,1.022,0,0,0-1.012,1.031v11.789a1.021,1.021,0,0,0,1.012,1.031h11.569A1.021,1.021,0,0,0,329.99,256.025Zm-2.024-1.033h-9.544v-9.726h9.544Z"
          transform="translate(-280.407 -209.42)" fill="#fff"/>
    <path id="Path_3" data-name="Path 3"
          d="M400.189,113.188l-.009-12.719a1.021,1.021,0,0,0-1.013-1.031h-5.7a9.662,9.662,0,0,0,.148-1.674c0-.047,0-.1-.006-.143,0-.01.006-.019.006-.03a8.96,8.96,0,0,0-5.343-8.3,8.255,8.255,0,0,0-1.575-.528,9.386,9.386,0,0,0,2.234-6.144,9.664,9.664,0,0,0-.172-1.809h6.405a1.022,1.022,0,0,0,1.012-1.031V65.852a3.962,3.962,0,1,0-2.025-.006v12.9H388.1a8.916,8.916,0,0,0-5.456-4.951l-.012-7.79a3.964,3.964,0,1,0-3.812-1.046A3.893,3.893,0,0,0,380.613,66l.012,7.44c-.145-.007-.289-.023-.436-.023a8.156,8.156,0,0,0-1.581.161,8.7,8.7,0,0,0-8.468-8.321c-.024,0-.047.013-.07.014-.1,0-.191-.014-.289-.014-4.657,0-8.74,4.581-8.74,9.8v5.688a1.013,1.013,0,1,0,2.025,0V75.06c0-4.124,3.138-7.74,6.715-7.74a6.945,6.945,0,0,1,6.716,7.137c0,.114-.009.227-.016.339l-.008.107a1.028,1.028,0,0,0,.054.38,6.615,6.615,0,0,1-6.387,5.8,1.031,1.031,0,0,0,0,2.062,8.645,8.645,0,0,0,8.365-7.408,6.261,6.261,0,0,1,1.685-.262,6.945,6.945,0,0,1,6.714,7.139,7.171,7.171,0,0,1-3.3,6.135c-.021.013-.035.035-.054.049a8.844,8.844,0,0,0-6.935,8.786,1.013,1.013,0,1,0,2.025,0,6.7,6.7,0,0,1,6.474-6.882,6.085,6.085,0,0,1,2.411.5,7.174,7.174,0,0,1,4.063,6.556,6.943,6.943,0,0,1-6.715,7.136c-.179,0-.355-.013-.529-.028a1.006,1.006,0,0,0-1.046.694,1.044,1.044,0,0,0,.41,1.2,7.179,7.179,0,0,1,3.184,5.881,1,1,0,0,0-.049.247,6.486,6.486,0,1,1-12.948,0,1.013,1.013,0,1,0-2.025,0,9.034,9.034,0,0,0,4.338,7.794c.05.168.1.312.136.435a2.282,2.282,0,0,1,.152.944,6.728,6.728,0,1,1-13.431,0,.89.89,0,0,0-.03-.15.96.96,0,0,0,.03-.15v-5.431a1.013,1.013,0,1,0-2.025,0v5.431a.877.877,0,0,0,.03.15.952.952,0,0,0-.03.15,9.118,9.118,0,0,0,6.9,8.993v3.368a1.021,1.021,0,0,0,1.011,1.031l15.61.01a3.978,3.978,0,0,0,3.813,3h.013a4.037,4.037,0,1,0-3.831-5.057l-14.592-.01v-2.138a9,9,0,0,0,8.556-9.191c0-.069,0-.135,0-.2a8.331,8.331,0,0,0,1.67.168,8.988,8.988,0,0,0,8.738-9.2,9.408,9.408,0,0,0-2.187-6.087,8.888,8.888,0,0,0,6.113-5.251h5.3l.008,11.677a4.036,4.036,0,0,0,.986,7.925h.016a4.033,4.033,0,0,0,1.028-7.913Zm-6.954-51.232a1.937,1.937,0,1,1,1.937,1.98v.392h0l0-.391a1.959,1.959,0,0,1-1.93-1.98Zm-13.533.153a1.936,1.936,0,1,1,1.934,1.98v0h-.007a1.9,1.9,0,0,1-1.366-.582,1.981,1.981,0,0,1-.561-1.4Zm8.671,70.345a1.974,1.974,0,0,1,.008,3.947l-.006,1.031V136.4a1.974,1.974,0,0,1,0-3.947Zm10.794-13.414v1.031l-.007-1.031a1.942,1.942,0,1,1,.007,0Z"
          transform="translate(-316.979 -57.665)" fill="#fff"/>
    <path id="Path_4" data-name="Path 4"
          d="M158.692,114.1a1.022,1.022,0,0,0-1.012,1.031v5.431a.9.9,0,0,0,.03.15.985.985,0,0,0-.03.15,6.728,6.728,0,1,1-13.431,0,2.288,2.288,0,0,1,.152-.944c.04-.122.086-.266.136-.435a9.034,9.034,0,0,0,4.338-7.794,1.013,1.013,0,1,0-2.025,0,6.486,6.486,0,1,1-12.948,0,1,1,0,0,0-.049-.247,7.187,7.187,0,0,1,3.184-5.881,1.041,1.041,0,0,0,.41-1.2,1.009,1.009,0,0,0-1.046-.694c-.175.016-.351.028-.529.028a6.944,6.944,0,0,1-6.715-7.137A7.171,7.171,0,0,1,133.218,90a6.1,6.1,0,0,1,2.411-.5,6.7,6.7,0,0,1,6.474,6.882,1.013,1.013,0,1,0,2.025,0,8.845,8.845,0,0,0-6.935-8.787c-.02-.014-.033-.035-.054-.049a7.172,7.172,0,0,1-3.3-6.135,6.945,6.945,0,0,1,6.714-7.139,6.292,6.292,0,0,1,1.685.262,8.645,8.645,0,0,0,8.365,7.408,1.031,1.031,0,0,0,0-2.062,6.614,6.614,0,0,1-6.387-5.8,1.025,1.025,0,0,0,.054-.38l-.008-.107c-.007-.112-.016-.224-.016-.339a6.945,6.945,0,0,1,6.716-7.137c3.577,0,6.715,3.617,6.715,7.74v5.688a1.013,1.013,0,1,0,2.025,0V73.854c0-4.519-3.058-8.551-6.9-9.558V60.523a1.021,1.021,0,0,0-1.011-1.031l-11.562-.01a3.965,3.965,0,1,0-3.808,5.077h.016a3.973,3.973,0,0,0,3.8-3.015l10.543.009v2.507c-.035,0-.068,0-.105,0s-.046-.014-.07-.014a8.7,8.7,0,0,0-8.468,8.321,8.063,8.063,0,0,0-1.581-.161,8.989,8.989,0,0,0-8.738,9.2c0,.211.014.421.028.628h-8.113V70.562a3.962,3.962,0,1,0-2.024.005v12.5A1.021,1.021,0,0,0,122.72,84.1H132.2a9.2,9.2,0,0,0,1.851,3.453,8.29,8.29,0,0,0-1.571.526,8.96,8.96,0,0,0-5.346,8.3c0,.011.006.021.006.03,0,.047-.006.1-.006.143,0,.318.02.633.051.944h-2.092a3.967,3.967,0,1,0-3.864,4.945h.017a3.965,3.965,0,0,0,3.773-2.881h2.6a8.937,8.937,0,0,0,6.388,5.982,9.407,9.407,0,0,0-2.187,6.087,8.988,8.988,0,0,0,8.738,9.2,8.326,8.326,0,0,0,1.67-.168c0,.063,0,.128,0,.2,0,.216.017.428.03.64l-6.465,0c-.013,0-.023-.007-.037-.007s-.023.007-.037.007l-10.164-.007a3.965,3.965,0,1,0-3.807,5.081h.016a3.971,3.971,0,0,0,3.8-3.017l9.183.006V129.5a4.039,4.039,0,0,0,.878,7.959h.012a4.054,4.054,0,0,0,2.813-6.879,3.905,3.905,0,0,0-1.679-1.006v-6.016l5.845,0a8.823,8.823,0,0,0,8.354,6.5,8.99,8.99,0,0,0,8.74-9.2.891.891,0,0,0-.03-.15.986.986,0,0,0,.03-.15v-5.431a1.024,1.024,0,0,0-1.013-1.033ZM136.429,62.5l-.007,1.031V62.5a1.934,1.934,0,1,1,.007,0Zm-15.655,4.19a1.937,1.937,0,1,1,1.944,1.965h-.007v0A1.957,1.957,0,0,1,120.774,66.688Zm.472,33.693v1.031l-.009-1.031a1.938,1.938,0,1,1,.009,0Zm16.323,33.051a1.96,1.96,0,0,1-1.936,1.967v1.031l0-1.031a1.974,1.974,0,0,1,.015-3.947,1.9,1.9,0,0,1,1.366.582,1.98,1.98,0,0,1,.56,1.4Zm-15.816-8.925-.007,1.031v-1.031a1.888,1.888,0,1,1,.007,0Z"
          transform="translate(-117.282 -56.486)" fill="#fff"/>
</svg>
